<svg xmlns="http://www.w3.org/2000/svg" xmlns:xlink="http://www.w3.org/1999/xlink" version="1.1" x="0px" y="0px" fill="#D62F2F" viewBox="0 0 100 125" enable-background="new 0 0 100 100" xml:space="preserve"><path d="M71.1,22c3-0.7,6-1.3,9.1-1.7c1.5-0.2,3-0.5,4.6-0.6c0.9-0.1,2-0.1,2.6,0.5c-0.3-0.1-0.6-0.1-0.9,0.2  C63,42.6,37.5,62.8,10.5,80.5c-1,0.7-0.2,2.4,0.9,1.7c27.2-17.8,52.8-38,76.4-60.4c0.1-0.1,0.1-0.1,0.2-0.2c0,0.9-1,2-1.4,2.8  c-2.8,5.5-5.7,10.9-8.5,16.3c-0.4,0-0.7,0.2-0.8,0.6c-0.1,0.6-0.3,1.1-0.4,1.7c-0.2,1,1.2,1.9,1.7,0.8c2.3-4.5,4.7-8.9,7-13.4  c1.2-2.2,2.4-4.4,3.5-6.7c0.5-1.1,1.1-2.3,1-3.6c-0.4-2.7-2.9-2.7-5-2.5c-4.8,0.5-9.5,1.4-14.2,2.4C69.5,20.4,69.9,22.3,71.1,22z"/></svg>